<?xml version="1.0" encoding="UTF-8"?>
<svg xmlns="http://www.w3.org/2000/svg" xmlns:xlink="http://www.w3.org/1999/xlink" width="325pt" height="225pt" viewBox="0 0 325 225" version="1.1">
<g id="surface21">
<path style=" stroke:none;fill-rule:nonzero;fill:rgb(89.803922%,89.803922%,89.803922%);fill-opacity:1;" d="M 70.371094 176.8125 C 70.371094 184.347656 69.523438 190.433594 67.828125 195.066406 C 66.132812 199.703125 63.722656 203.300781 60.59375 205.863281 C 57.46875 208.425781 53.71875 210.140625 49.347656 211.007812 C 44.976562 211.871094 40.113281 212.304688 34.765625 212.304688 C 27.527344 212.304688 21.988281 211.175781 18.148438 208.914062 C 14.304688 206.652344 12.382812 203.941406 12.382812 200.773438 C 12.382812 198.136719 13.453125 195.914062 15.601562 194.105469 C 17.75 192.296875 20.632812 191.394531 24.25 191.394531 C 26.964844 191.394531 29.132812 192.128906 30.75 193.597656 C 32.371094 195.066406 33.710938 196.519531 34.765625 197.949219 C 35.96875 199.53125 36.988281 200.585938 37.816406 201.113281 C 38.644531 201.640625 39.398438 201.90625 40.078125 201.90625 C 41.507812 201.90625 42.601562 201.058594 43.355469 199.363281 C 44.109375 197.667969 44.484375 194.371094 44.484375 189.472656 L 44.484375 96.550781 L 70.371094 89.429688 L 70.371094 176.8125 M 107.238281 91.914062 L 107.238281 151.714844 C 107.238281 153.375 107.558594 154.9375 108.199219 156.40625 C 108.839844 157.875 109.726562 159.140625 110.855469 160.195312 C 111.988281 161.25 113.304688 162.097656 114.8125 162.738281 C 116.320312 163.378906 117.941406 163.699219 119.675781 163.699219 C 121.632812 163.699219 123.859375 162.601562 126.570312 160.703125 C 130.863281 157.695312 133.464844 155.628906 133.464844 153.183594 C 133.464844 152.597656 133.464844 91.914062 133.464844 91.914062 L 159.238281 91.914062 L 159.238281 176.8125 L 133.464844 176.8125 L 133.464844 168.898438 C 130.074219 171.761719 126.457031 174.058594 122.613281 175.792969 C 118.769531 177.527344 115.039062 178.394531 111.421875 178.394531 C 107.203125 178.394531 103.28125 177.695312 99.664062 176.300781 C 96.046875 174.90625 92.882812 173.003906 90.171875 170.59375 C 87.457031 168.183594 85.328125 165.355469 83.78125 162.113281 C 82.238281 158.875 81.464844 155.40625 81.464844 151.714844 L 81.464844 91.914062 L 107.238281 91.914062 M 195.382812 176.8125 L 169.722656 176.8125 L 169.722656 57.777344 L 195.382812 50.65625 L 195.382812 176.8125 M 206.101562 96.550781 L 231.875 89.429688 L 231.875 176.8125 L 206.101562 176.8125 L 206.101562 96.550781 M 285.726562 132.949219 C 283.238281 134.007812 280.730469 135.230469 278.207031 136.625 C 275.683594 138.019531 273.382812 139.546875 271.3125 141.203125 C 269.238281 142.859375 267.5625 144.632812 266.28125 146.515625 C 265 148.398438 264.359375 150.359375 264.359375 152.394531 C 264.359375 153.976562 264.566406 155.503906 264.980469 156.972656 C 265.394531 158.441406 265.980469 159.703125 266.734375 160.757812 C 267.488281 161.8125 268.316406 162.660156 269.222656 163.300781 C 270.125 163.941406 271.105469 164.261719 272.160156 164.261719 C 274.269531 164.261719 276.398438 163.621094 278.546875 162.339844 C 280.695312 161.058594 283.085938 159.441406 285.726562 157.480469 L 285.726562 132.949219 M 311.609375 176.8125 L 285.726562 176.8125 L 285.726562 170.027344 C 284.292969 171.234375 282.898438 172.347656 281.542969 173.363281 C 280.1875 174.378906 278.660156 175.265625 276.964844 176.019531 C 275.269531 176.773438 273.367188 177.355469 271.253906 177.773438 C 269.144531 178.1875 266.65625 178.394531 263.796875 178.394531 C 259.875 178.394531 256.351562 177.828125 253.226562 176.699219 C 250.097656 175.566406 247.441406 174.023438 245.257812 172.0625 C 243.070312 170.105469 241.394531 167.785156 240.226562 165.109375 C 239.058594 162.4375 238.472656 159.515625 238.472656 156.351562 C 238.472656 153.109375 239.09375 150.171875 240.339844 147.53125 C 241.582031 144.894531 243.277344 142.523438 245.425781 140.410156 C 247.574219 138.300781 250.078125 136.417969 252.941406 134.757812 C 255.804688 133.101562 258.878906 131.574219 262.15625 130.179688 C 265.433594 128.785156 268.84375 127.507812 272.386719 126.339844 C 275.925781 125.171875 279.433594 124.058594 282.898438 123.003906 L 285.726562 122.324219 L 285.726562 113.960938 C 285.726562 108.535156 284.6875 104.691406 282.617188 102.429688 C 280.542969 100.167969 277.773438 99.039062 274.308594 99.039062 C 270.238281 99.039062 267.410156 100.019531 265.828125 101.976562 C 264.246094 103.9375 263.453125 106.308594 263.453125 109.097656 C 263.453125 110.679688 263.285156 112.226562 262.945312 113.734375 C 262.609375 115.242188 262.023438 116.558594 261.195312 117.691406 C 260.367188 118.820312 259.179688 119.726562 257.632812 120.402344 C 256.089844 121.082031 254.148438 121.421875 251.8125 121.421875 C 248.195312 121.421875 245.257812 120.382812 242.996094 118.3125 C 240.734375 116.238281 239.605469 113.621094 239.605469 110.453125 C 239.605469 107.515625 240.601562 104.785156 242.597656 102.261719 C 244.597656 99.734375 247.289062 97.566406 250.683594 95.761719 C 254.074219 93.949219 257.992188 92.519531 262.4375 91.464844 C 266.882812 90.410156 271.59375 89.882812 276.566406 89.882812 C 282.671875 89.882812 287.929688 90.429688 292.339844 91.519531 C 296.746094 92.613281 300.382812 94.175781 303.246094 96.210938 C 306.109375 98.246094 308.21875 100.695312 309.574219 103.558594 C 310.933594 106.421875 311.609375 109.628906 311.609375 113.167969 L 311.609375 176.8125 "/>
<path style=" stroke:none;fill-rule:nonzero;fill:rgb(79.6%,23.5%,20%);fill-opacity:1;" d="M 237.773438 67.589844 C 237.773438 77.257812 229.9375 85.089844 220.273438 85.089844 C 210.605469 85.089844 202.773438 77.257812 202.773438 67.589844 C 202.773438 57.925781 210.605469 50.089844 220.273438 50.089844 C 229.9375 50.089844 237.773438 57.925781 237.773438 67.589844 "/>
<path style=" stroke:none;fill-rule:nonzero;fill:rgb(25.1%,38.8%,84.7%);fill-opacity:1;" d="M 75.453125 67.589844 C 75.453125 77.257812 67.617188 85.089844 57.953125 85.089844 C 48.289062 85.089844 40.453125 77.257812 40.453125 67.589844 C 40.453125 57.925781 48.289062 50.089844 57.953125 50.089844 C 67.617188 50.089844 75.453125 57.925781 75.453125 67.589844 "/>
<path style=" stroke:none;fill-rule:nonzero;fill:rgb(58.4%,34.5%,69.8%);fill-opacity:1;" d="M 279.820312 67.589844 C 279.820312 77.257812 271.984375 85.089844 262.320312 85.089844 C 252.65625 85.089844 244.820312 77.257812 244.820312 67.589844 C 244.820312 57.925781 252.65625 50.089844 262.320312 50.089844 C 271.984375 50.089844 279.820312 57.925781 279.820312 67.589844 "/>
<path style=" stroke:none;fill-rule:nonzero;fill:rgb(22%,59.6%,14.9%);fill-opacity:1;" d="M 258.800781 31.171875 C 258.800781 40.835938 250.964844 48.671875 241.300781 48.671875 C 231.632812 48.671875 223.800781 40.835938 223.800781 31.171875 C 223.800781 21.507812 231.632812 13.671875 241.300781 13.671875 C 250.964844 13.671875 258.800781 21.507812 258.800781 31.171875 "/>
</g>
</svg>
