<?xml version="1.0" encoding="utf-8"?>
<svg xmlns="http://www.w3.org/2000/svg" xmlns:xlink="http://www.w3.org/1999/xlink" width="600" height="400" viewBox="0 0 2400 1600">
<defs>
  <clipPath id="clip2500">
    <rect x="0" y="0" width="2000" height="2000"/>
  </clipPath>
</defs>
<defs>
  <clipPath id="clip2501">
    <rect x="0" y="0" width="2400" height="1600"/>
  </clipPath>
</defs>
<polygon clip-path="url(#clip2501)" points="
0,1600 2400,1600 2400,0 0,0 
  " fill="#ffffff" fill-rule="evenodd" fill-opacity="1"/>
<defs>
  <clipPath id="clip2502">
    <rect x="480" y="0" width="1681" height="1600"/>
  </clipPath>
</defs>
<polygon clip-path="url(#clip2501)" points="
600.463,1503.47 1882.19,1503.47 1882.19,47.2441 600.463,47.2441 
  " fill="#ffffff" fill-rule="evenodd" fill-opacity="1"/>
<defs>
  <clipPath id="clip2503">
    <rect x="600" y="47" width="1283" height="1457"/>
  </clipPath>
</defs>
<polyline clip-path="url(#clip2501)" style="stroke:#cccccc; stroke-width:2; stroke-opacity:0.1; fill:none" points="
  660.549,1423.81 1129.69,1165.74 
  "/>
<polyline clip-path="url(#clip2501)" style="stroke:#cccccc; stroke-width:2; stroke-opacity:0.1; fill:none" points="
  1129.69,1165.74 1129.69,53.6051 
  "/>
<polyline clip-path="url(#clip2501)" style="stroke:#ededed; stroke-width:2; stroke-opacity:0.1; fill:none" points="
  760.109,1434.35 1229.25,1176.28 
  "/>
<polyline clip-path="url(#clip2501)" style="stroke:#ededed; stroke-width:2; stroke-opacity:0.1; fill:none" points="
  1229.25,1176.28 1229.25,64.145 
  "/>
<polyline clip-path="url(#clip2501)" style="stroke:#cccccc; stroke-width:2; stroke-opacity:0.1; fill:none" points="
  859.67,1444.89 1328.81,1186.82 
  "/>
<polyline clip-path="url(#clip2501)" style="stroke:#cccccc; stroke-width:2; stroke-opacity:0.1; fill:none" points="
  1328.81,1186.82 1328.81,74.685 
  "/>
<polyline clip-path="url(#clip2501)" style="stroke:#ededed; stroke-width:2; stroke-opacity:0.1; fill:none" points="
  959.23,1455.43 1428.38,1197.36 
  "/>
<polyline clip-path="url(#clip2501)" style="stroke:#ededed; stroke-width:2; stroke-opacity:0.1; fill:none" points="
  1428.38,1197.36 1428.38,85.2249 
  "/>
<polyline clip-path="url(#clip2501)" style="stroke:#cccccc; stroke-width:2; stroke-opacity:0.1; fill:none" points="
  1058.79,1465.97 1527.94,1207.9 
  "/>
<polyline clip-path="url(#clip2501)" style="stroke:#cccccc; stroke-width:2; stroke-opacity:0.1; fill:none" points="
  1527.94,1207.9 1527.94,95.7649 
  "/>
<polyline clip-path="url(#clip2501)" style="stroke:#ededed; stroke-width:2; stroke-opacity:0.1; fill:none" points="
  1158.35,1476.51 1627.5,1218.44 
  "/>
<polyline clip-path="url(#clip2501)" style="stroke:#ededed; stroke-width:2; stroke-opacity:0.1; fill:none" points="
  1627.5,1218.44 1627.5,106.305 
  "/>
<polyline clip-path="url(#clip2501)" style="stroke:#cccccc; stroke-width:2; stroke-opacity:0.1; fill:none" points="
  1257.91,1487.05 1727.06,1228.98 
  "/>
<polyline clip-path="url(#clip2501)" style="stroke:#cccccc; stroke-width:2; stroke-opacity:0.1; fill:none" points="
  1727.06,1228.98 1727.06,116.845 
  "/>
<polyline clip-path="url(#clip2501)" style="stroke:#ededed; stroke-width:2; stroke-opacity:0.1; fill:none" points="
  1357.47,1497.59 1826.62,1239.52 
  "/>
<polyline clip-path="url(#clip2501)" style="stroke:#ededed; stroke-width:2; stroke-opacity:0.1; fill:none" points="
  1826.62,1239.52 1826.62,127.385 
  "/>
<polyline clip-path="url(#clip2501)" style="stroke:#cccccc; stroke-width:2; stroke-opacity:0.1; fill:none" points="
  630.599,1400.87 1443.18,1486.9 
  "/>
<polyline clip-path="url(#clip2501)" style="stroke:#cccccc; stroke-width:2; stroke-opacity:0.1; fill:none" points="
  630.599,1400.87 630.599,288.738 
  "/>
<polyline clip-path="url(#clip2501)" style="stroke:#ededed; stroke-width:2; stroke-opacity:0.1; fill:none" points="
  681.192,1373.04 1493.78,1459.07 
  "/>
<polyline clip-path="url(#clip2501)" style="stroke:#ededed; stroke-width:2; stroke-opacity:0.1; fill:none" points="
  681.192,1373.04 681.192,260.908 
  "/>
<polyline clip-path="url(#clip2501)" style="stroke:#cccccc; stroke-width:2; stroke-opacity:0.1; fill:none" points="
  731.785,1345.21 1544.37,1431.24 
  "/>
<polyline clip-path="url(#clip2501)" style="stroke:#cccccc; stroke-width:2; stroke-opacity:0.1; fill:none" points="
  731.785,1345.21 731.785,233.077 
  "/>
<polyline clip-path="url(#clip2501)" style="stroke:#ededed; stroke-width:2; stroke-opacity:0.1; fill:none" points="
  782.379,1317.38 1594.96,1403.4 
  "/>
<polyline clip-path="url(#clip2501)" style="stroke:#ededed; stroke-width:2; stroke-opacity:0.1; fill:none" points="
  782.379,1317.38 782.379,205.246 
  "/>
<polyline clip-path="url(#clip2501)" style="stroke:#cccccc; stroke-width:2; stroke-opacity:0.1; fill:none" points="
  832.972,1289.55 1645.55,1375.57 
  "/>
<polyline clip-path="url(#clip2501)" style="stroke:#cccccc; stroke-width:2; stroke-opacity:0.1; fill:none" points="
  832.972,1289.55 832.972,177.415 
  "/>
<polyline clip-path="url(#clip2501)" style="stroke:#ededed; stroke-width:2; stroke-opacity:0.1; fill:none" points="
  883.565,1261.72 1696.15,1347.74 
  "/>
<polyline clip-path="url(#clip2501)" style="stroke:#ededed; stroke-width:2; stroke-opacity:0.1; fill:none" points="
  883.565,1261.72 883.565,149.584 
  "/>
<polyline clip-path="url(#clip2501)" style="stroke:#cccccc; stroke-width:2; stroke-opacity:0.1; fill:none" points="
  934.158,1233.89 1746.74,1319.91 
  "/>
<polyline clip-path="url(#clip2501)" style="stroke:#cccccc; stroke-width:2; stroke-opacity:0.1; fill:none" points="
  934.158,1233.89 934.158,121.754 
  "/>
<polyline clip-path="url(#clip2501)" style="stroke:#ededed; stroke-width:2; stroke-opacity:0.1; fill:none" points="
  984.751,1206.06 1797.33,1292.08 
  "/>
<polyline clip-path="url(#clip2501)" style="stroke:#ededed; stroke-width:2; stroke-opacity:0.1; fill:none" points="
  984.751,1206.06 984.751,93.9228 
  "/>
<polyline clip-path="url(#clip2501)" style="stroke:#cccccc; stroke-width:2; stroke-opacity:0.1; fill:none" points="
  1035.34,1178.23 1847.93,1264.25 
  "/>
<polyline clip-path="url(#clip2501)" style="stroke:#cccccc; stroke-width:2; stroke-opacity:0.1; fill:none" points="
  1035.34,1178.23 1035.34,66.0921 
  "/>
<polyline clip-path="url(#clip2501)" style="stroke:#ededed; stroke-width:2; stroke-opacity:0.1; fill:none" points="
  600.463,1306.24 1069.61,1048.17 
  "/>
<polyline clip-path="url(#clip2501)" style="stroke:#ededed; stroke-width:2; stroke-opacity:0.1; fill:none" points="
  1069.61,1048.17 1882.19,1134.19 
  "/>
<polyline clip-path="url(#clip2501)" style="stroke:#cccccc; stroke-width:2; stroke-opacity:0.1; fill:none" points="
  600.463,1195.02 1069.61,936.952 
  "/>
<polyline clip-path="url(#clip2501)" style="stroke:#cccccc; stroke-width:2; stroke-opacity:0.1; fill:none" points="
  1069.61,936.952 1882.19,1022.98 
  "/>
<polyline clip-path="url(#clip2501)" style="stroke:#ededed; stroke-width:2; stroke-opacity:0.1; fill:none" points="
  600.463,1083.81 1069.61,825.739 
  "/>
<polyline clip-path="url(#clip2501)" style="stroke:#ededed; stroke-width:2; stroke-opacity:0.1; fill:none" points="
  1069.61,825.739 1882.19,911.762 
  "/>
<polyline clip-path="url(#clip2501)" style="stroke:#cccccc; stroke-width:2; stroke-opacity:0.1; fill:none" points="
  600.463,972.597 1069.61,714.525 
  "/>
<polyline clip-path="url(#clip2501)" style="stroke:#cccccc; stroke-width:2; stroke-opacity:0.1; fill:none" points="
  1069.61,714.525 1882.19,800.549 
  "/>
<polyline clip-path="url(#clip2501)" style="stroke:#ededed; stroke-width:2; stroke-opacity:0.1; fill:none" points="
  600.463,861.383 1069.61,603.312 
  "/>
<polyline clip-path="url(#clip2501)" style="stroke:#ededed; stroke-width:2; stroke-opacity:0.1; fill:none" points="
  1069.61,603.312 1882.19,689.335 
  "/>
<polyline clip-path="url(#clip2501)" style="stroke:#cccccc; stroke-width:2; stroke-opacity:0.1; fill:none" points="
  600.463,750.17 1069.61,492.098 
  "/>
<polyline clip-path="url(#clip2501)" style="stroke:#cccccc; stroke-width:2; stroke-opacity:0.1; fill:none" points="
  1069.61,492.098 1882.19,578.122 
  "/>
<polyline clip-path="url(#clip2501)" style="stroke:#ededed; stroke-width:2; stroke-opacity:0.1; fill:none" points="
  600.463,638.956 1069.61,380.885 
  "/>
<polyline clip-path="url(#clip2501)" style="stroke:#ededed; stroke-width:2; stroke-opacity:0.1; fill:none" points="
  1069.61,380.885 1882.19,466.908 
  "/>
<polyline clip-path="url(#clip2501)" style="stroke:#cccccc; stroke-width:2; stroke-opacity:0.1; fill:none" points="
  600.463,527.743 1069.61,269.671 
  "/>
<polyline clip-path="url(#clip2501)" style="stroke:#cccccc; stroke-width:2; stroke-opacity:0.1; fill:none" points="
  1069.61,269.671 1882.19,355.695 
  "/>
<polyline clip-path="url(#clip2501)" style="stroke:#ededed; stroke-width:2; stroke-opacity:0.1; fill:none" points="
  600.463,416.529 1069.61,158.458 
  "/>
<polyline clip-path="url(#clip2501)" style="stroke:#ededed; stroke-width:2; stroke-opacity:0.1; fill:none" points="
  1069.61,158.458 1882.19,244.482 
  "/>
<polyline clip-path="url(#clip2501)" style="stroke:#cccccc; stroke-width:2; stroke-opacity:0.1; fill:none" points="
  600.463,305.316 1069.61,47.2441 
  "/>
<polyline clip-path="url(#clip2501)" style="stroke:#cccccc; stroke-width:2; stroke-opacity:0.1; fill:none" points="
  1069.61,47.2441 1882.19,133.268 
  "/>
<polyline clip-path="url(#clip2501)" style="stroke:#000000; stroke-width:4; stroke-opacity:1; fill:none" points="
  542.855,1207.73 539.065,1211.46 536.538,1217.79 535.275,1226.72 535.275,1231.65 536.538,1239.19 539.065,1242.73 542.855,1242.29 545.382,1240.9 549.172,1237.17 
  551.699,1230.85 552.962,1221.92 552.962,1216.99 551.699,1209.45 549.172,1205.9 545.382,1206.34 542.855,1207.73 
  "/>
<polyline clip-path="url(#clip2501)" style="stroke:#000000; stroke-width:4; stroke-opacity:1; fill:none" points="
  563.07,1227.88 561.806,1230.22 563.07,1231.17 564.333,1228.83 563.07,1227.88 
  "/>
<polyline clip-path="url(#clip2501)" style="stroke:#000000; stroke-width:4; stroke-opacity:1; fill:none" points="
  574.44,1198.59 574.44,1196.94 575.704,1192.96 576.967,1190.61 579.494,1187.58 584.548,1184.8 587.074,1185.05 588.338,1186.01 589.601,1188.6 589.601,1191.89 
  588.338,1195.88 585.811,1202.21 573.177,1225.61 590.865,1215.88 
  "/>
<polyline clip-path="url(#clip2501)" style="stroke:#000000; stroke-width:4; stroke-opacity:1; fill:none" points="
  542.855,985.307 539.065,989.037 536.538,995.364 535.275,1004.29 535.275,1009.23 536.538,1016.76 539.065,1020.31 542.855,1019.87 545.382,1018.48 549.172,1014.75 
  551.699,1008.42 552.962,999.495 552.962,994.558 551.699,987.025 549.172,983.477 545.382,983.917 542.855,985.307 
  "/>
<polyline clip-path="url(#clip2501)" style="stroke:#000000; stroke-width:4; stroke-opacity:1; fill:none" points="
  563.07,1005.46 561.806,1007.8 563.07,1008.75 564.333,1006.41 563.07,1005.46 
  "/>
<polyline clip-path="url(#clip2501)" style="stroke:#000000; stroke-width:4; stroke-opacity:1; fill:none" points="
  585.811,961.677 573.177,991.667 592.128,981.242 
  "/>
<polyline clip-path="url(#clip2501)" style="stroke:#000000; stroke-width:4; stroke-opacity:1; fill:none" points="
  585.811,961.677 585.811,996.237 
  "/>
<polyline clip-path="url(#clip2501)" style="stroke:#000000; stroke-width:4; stroke-opacity:1; fill:none" points="
  542.855,762.88 539.065,766.61 536.538,772.938 535.275,781.861 535.275,786.798 536.538,794.332 539.065,797.879 542.855,797.44 545.382,796.05 549.172,792.319 
  551.699,785.992 552.962,777.068 552.962,772.131 551.699,764.598 549.172,761.05 545.382,761.49 542.855,762.88 
  "/>
<polyline clip-path="url(#clip2501)" style="stroke:#000000; stroke-width:4; stroke-opacity:1; fill:none" points="
  563.07,783.028 561.806,785.369 563.07,786.32 564.333,783.979 563.07,783.028 
  "/>
<polyline clip-path="url(#clip2501)" style="stroke:#000000; stroke-width:4; stroke-opacity:1; fill:none" points="
  589.601,742.102 588.338,739.506 584.548,739.945 582.021,741.335 578.23,745.066 575.704,751.393 574.44,760.316 574.44,768.545 575.704,774.433 578.23,776.334 
  582.021,775.895 583.284,775.2 587.074,771.469 589.601,766.788 590.865,761.156 590.865,759.51 589.601,755.268 587.074,753.367 583.284,753.806 582.021,754.501 
  578.23,758.231 575.704,762.913 574.44,768.545 
  "/>
<polyline clip-path="url(#clip2501)" style="stroke:#000000; stroke-width:4; stroke-opacity:1; fill:none" points="
  542.855,540.453 539.065,544.183 536.538,550.511 535.275,559.434 535.275,564.371 536.538,571.905 539.065,575.452 542.855,575.013 545.382,573.623 549.172,569.892 
  551.699,563.565 552.962,554.641 552.962,549.704 551.699,542.171 549.172,538.624 545.382,539.063 542.855,540.453 
  "/>
<polyline clip-path="url(#clip2501)" style="stroke:#000000; stroke-width:4; stroke-opacity:1; fill:none" points="
  563.07,560.601 561.806,562.942 563.07,563.893 564.333,561.552 563.07,560.601 
  "/>
<polyline clip-path="url(#clip2501)" style="stroke:#000000; stroke-width:4; stroke-opacity:1; fill:none" points="
  579.494,520.298 575.704,524.029 574.44,528.015 574.44,531.307 575.704,533.903 578.23,534.159 583.284,533.025 587.074,532.585 589.601,534.487 590.865,537.083 
  590.865,542.02 589.601,546.007 588.338,548.347 584.548,552.078 579.494,554.858 575.704,555.297 574.44,554.347 573.177,551.75 573.177,546.813 574.44,542.827 
  576.967,538.145 580.757,534.415 585.811,529.989 588.338,526.953 589.601,522.967 589.601,519.675 588.338,517.079 584.548,517.518 579.494,520.298 
  "/>
<polyline clip-path="url(#clip2501)" style="stroke:#000000; stroke-width:4; stroke-opacity:1; fill:none" points="
  539.065,326.694 541.592,323.658 545.382,316.636 545.382,351.196 
  "/>
<polyline clip-path="url(#clip2501)" style="stroke:#000000; stroke-width:4; stroke-opacity:1; fill:none" points="
  563.07,338.175 561.806,340.515 563.07,341.466 564.333,339.125 563.07,338.175 
  "/>
<polyline clip-path="url(#clip2501)" style="stroke:#000000; stroke-width:4; stroke-opacity:1; fill:none" points="
  580.757,297.176 576.967,300.907 574.44,307.234 573.177,316.157 573.177,321.095 574.44,328.628 576.967,332.175 580.757,331.736 583.284,330.346 587.074,326.615 
  589.601,320.288 590.865,311.365 590.865,306.428 589.601,298.894 587.074,295.347 583.284,295.786 580.757,297.176 
  "/>
<polyline clip-path="url(#clip2501)" style="stroke:#000000; stroke-width:4; stroke-opacity:1; fill:none" points="
  600.463,1417.45 600.463,1417.45 592.204,1421.99 600.463,1417.45 600.463,1306.24 596.334,1308.51 600.463,1306.24 600.463,1195.02 592.204,1199.57 600.463,1195.02 
  600.463,1083.81 596.334,1086.08 600.463,1083.81 600.463,972.597 592.204,977.14 600.463,972.597 600.463,861.383 596.334,863.655 600.463,861.383 600.463,750.17 
  592.204,754.713 600.463,750.17 600.463,638.956 596.334,641.228 600.463,638.956 600.463,527.743 592.204,532.286 600.463,527.743 600.463,416.529 596.334,418.801 
  600.463,416.529 600.463,305.316 592.204,309.859 600.463,305.316 
  "/>
<polyline clip-path="url(#clip2501)" style="stroke:#000000; stroke-width:4; stroke-opacity:1; fill:none" points="
  717.17,1446.47 712.288,1447.59 709.033,1452.19 707.406,1460.24 707.406,1465.18 709.033,1473.58 712.288,1478.86 717.17,1481.03 720.425,1481.37 725.308,1480.24 
  728.563,1475.65 730.19,1467.59 730.19,1462.66 728.563,1454.25 725.308,1448.97 720.425,1446.81 717.17,1446.47 
  "/>
<polyline clip-path="url(#clip2501)" style="stroke:#000000; stroke-width:4; stroke-opacity:1; fill:none" points="
  743.21,1480.49 741.583,1481.96 743.21,1483.78 744.838,1482.31 743.21,1480.49 
  "/>
<polyline clip-path="url(#clip2501)" style="stroke:#000000; stroke-width:4; stroke-opacity:1; fill:none" points="
  757.857,1459 757.857,1457.36 759.485,1454.24 761.112,1452.76 764.367,1451.46 770.877,1452.15 774.132,1454.14 775.76,1455.96 777.387,1459.42 777.387,1462.71 
  775.76,1465.83 772.505,1470.43 756.23,1485.16 779.015,1487.57 
  "/>
<polyline clip-path="url(#clip2501)" style="stroke:#000000; stroke-width:4; stroke-opacity:1; fill:none" points="
  916.291,1467.55 911.409,1468.67 908.154,1473.27 906.527,1481.32 906.527,1486.26 908.154,1494.66 911.409,1499.94 916.291,1502.11 919.546,1502.45 924.429,1501.32 
  927.684,1496.73 929.311,1488.67 929.311,1483.74 927.684,1475.33 924.429,1470.05 919.546,1467.89 916.291,1467.55 
  "/>
<polyline clip-path="url(#clip2501)" style="stroke:#000000; stroke-width:4; stroke-opacity:1; fill:none" points="
  942.331,1501.57 940.704,1503.04 942.331,1504.86 943.958,1503.39 942.331,1501.57 
  "/>
<polyline clip-path="url(#clip2501)" style="stroke:#000000; stroke-width:4; stroke-opacity:1; fill:none" points="
  971.626,1473.4 955.351,1494.72 979.763,1497.31 
  "/>
<polyline clip-path="url(#clip2501)" style="stroke:#000000; stroke-width:4; stroke-opacity:1; fill:none" points="
  971.626,1473.4 971.626,1507.96 
  "/>
<polyline clip-path="url(#clip2501)" style="stroke:#000000; stroke-width:4; stroke-opacity:1; fill:none" points="
  1115.41,1488.63 1110.53,1489.75 1107.27,1494.35 1105.65,1502.4 1105.65,1507.34 1107.27,1515.74 1110.53,1521.02 1115.41,1523.19 1118.67,1523.53 1123.55,1522.4 
  1126.8,1517.81 1128.43,1509.75 1128.43,1504.82 1126.8,1496.41 1123.55,1491.13 1118.67,1488.97 1115.41,1488.63 
  "/>
<polyline clip-path="url(#clip2501)" style="stroke:#000000; stroke-width:4; stroke-opacity:1; fill:none" points="
  1141.45,1522.65 1139.82,1524.12 1141.45,1525.94 1143.08,1524.47 1141.45,1522.65 
  "/>
<polyline clip-path="url(#clip2501)" style="stroke:#000000; stroke-width:4; stroke-opacity:1; fill:none" points="
  1175.63,1499.94 1174,1496.47 1169.12,1494.31 1165.86,1493.97 1160.98,1495.1 1157.73,1499.69 1156.1,1507.74 1156.1,1515.97 1157.73,1522.73 1160.98,1526.36 
  1165.86,1528.53 1167.49,1528.7 1172.37,1527.57 1175.63,1524.62 1177.26,1519.86 1177.26,1518.21 1175.63,1513.1 1172.37,1509.47 1167.49,1507.3 1165.86,1507.13 
  1160.98,1508.26 1157.73,1511.21 1156.1,1515.97 
  "/>
<polyline clip-path="url(#clip2501)" style="stroke:#000000; stroke-width:4; stroke-opacity:1; fill:none" points="
  1314.53,1509.71 1309.65,1510.83 1306.4,1515.43 1304.77,1523.48 1304.77,1528.42 1306.4,1536.82 1309.65,1542.1 1314.53,1544.27 1317.79,1544.61 1322.67,1543.48 
  1325.93,1538.89 1327.55,1530.83 1327.55,1525.9 1325.93,1517.49 1322.67,1512.21 1317.79,1510.05 1314.53,1509.71 
  "/>
<polyline clip-path="url(#clip2501)" style="stroke:#000000; stroke-width:4; stroke-opacity:1; fill:none" points="
  1340.57,1543.73 1338.95,1545.2 1340.57,1547.02 1342.2,1545.55 1340.57,1543.73 
  "/>
<polyline clip-path="url(#clip2501)" style="stroke:#000000; stroke-width:4; stroke-opacity:1; fill:none" points="
  1361.73,1514.7 1356.85,1515.83 1355.22,1518.95 1355.22,1522.24 1356.85,1525.71 1360.1,1527.7 1366.61,1530.03 1371.49,1532.19 1374.75,1535.83 1376.38,1539.29 
  1376.38,1544.23 1374.75,1547.35 1373.12,1548.82 1368.24,1549.95 1361.73,1549.26 1356.85,1547.1 1355.22,1545.28 1353.59,1541.82 1353.59,1536.88 1355.22,1533.76 
  1358.48,1530.81 1363.36,1529.69 1369.87,1528.73 1373.12,1527.43 1374.75,1524.31 1374.75,1521.02 1373.12,1517.55 1368.24,1515.39 1361.73,1514.7 
  "/>
<polyline clip-path="url(#clip2501)" style="stroke:#000000; stroke-width:4; stroke-opacity:1; fill:none" points="
  600.463,1417.45 660.549,1423.81 656.42,1426.08 660.549,1423.81 760.109,1434.35 751.851,1438.89 760.109,1434.35 859.67,1444.89 855.541,1447.16 859.67,1444.89 
  959.23,1455.43 950.972,1459.97 959.23,1455.43 1058.79,1465.97 1054.66,1468.24 1058.79,1465.97 1158.35,1476.51 1150.09,1481.05 1158.35,1476.51 1257.91,1487.05 
  1253.78,1489.32 1257.91,1487.05 1357.47,1497.59 1349.21,1502.13 1357.47,1497.59 1413.05,1503.47 
  "/>
<polyline clip-path="url(#clip2501)" style="stroke:#000000; stroke-width:4; stroke-opacity:1; fill:none" points="
  1518.59,1475.76 1514.8,1479.49 1512.28,1485.81 1511.01,1494.74 1511.01,1499.67 1512.28,1507.21 1514.8,1510.75 1518.59,1510.32 1521.12,1508.93 1524.91,1505.19 
  1527.44,1498.87 1528.7,1489.94 1528.7,1485.01 1527.44,1477.47 1524.91,1473.93 1521.12,1474.37 1518.59,1475.76 
  "/>
<polyline clip-path="url(#clip2501)" style="stroke:#000000; stroke-width:4; stroke-opacity:1; fill:none" points="
  1538.81,1495.9 1537.54,1498.24 1538.81,1499.2 1540.07,1496.85 1538.81,1495.9 
  "/>
<polyline clip-path="url(#clip2501)" style="stroke:#000000; stroke-width:4; stroke-opacity:1; fill:none" points="
  1550.18,1466.61 1550.18,1464.96 1551.44,1460.98 1552.71,1458.64 1555.23,1455.6 1560.29,1452.82 1562.81,1453.08 1564.08,1454.03 1565.34,1456.62 1565.34,1459.91 
  1564.08,1463.9 1561.55,1470.23 1548.91,1493.64 1566.6,1483.91 
  "/>
<polyline clip-path="url(#clip2501)" style="stroke:#000000; stroke-width:4; stroke-opacity:1; fill:none" points="
  1619.78,1420.09 1615.99,1423.82 1613.46,1430.15 1612.2,1439.07 1612.2,1444.01 1613.46,1451.55 1615.99,1455.09 1619.78,1454.65 1622.31,1453.26 1626.1,1449.53 
  1628.62,1443.21 1629.89,1434.28 1629.89,1429.35 1628.62,1421.81 1626.1,1418.26 1622.31,1418.7 1619.78,1420.09 
  "/>
<polyline clip-path="url(#clip2501)" style="stroke:#000000; stroke-width:4; stroke-opacity:1; fill:none" points="
  1639.99,1440.24 1638.73,1442.58 1639.99,1443.53 1641.26,1441.19 1639.99,1440.24 
  "/>
<polyline clip-path="url(#clip2501)" style="stroke:#000000; stroke-width:4; stroke-opacity:1; fill:none" points="
  1662.74,1396.46 1650.1,1426.45 1669.05,1416.03 
  "/>
<polyline clip-path="url(#clip2501)" style="stroke:#000000; stroke-width:4; stroke-opacity:1; fill:none" points="
  1662.74,1396.46 1662.74,1431.02 
  "/>
<polyline clip-path="url(#clip2501)" style="stroke:#000000; stroke-width:4; stroke-opacity:1; fill:none" points="
  1720.97,1364.43 1717.18,1368.16 1714.65,1374.49 1713.39,1383.41 1713.39,1388.35 1714.65,1395.88 1717.18,1399.43 1720.97,1398.99 1723.49,1397.6 1727.28,1393.87 
  1729.81,1387.54 1731.07,1378.62 1731.07,1373.68 1729.81,1366.15 1727.28,1362.6 1723.49,1363.04 1720.97,1364.43 
  "/>
<polyline clip-path="url(#clip2501)" style="stroke:#000000; stroke-width:4; stroke-opacity:1; fill:none" points="
  1741.18,1384.58 1739.92,1386.92 1741.18,1387.87 1742.44,1385.53 1741.18,1384.58 
  "/>
<polyline clip-path="url(#clip2501)" style="stroke:#000000; stroke-width:4; stroke-opacity:1; fill:none" points="
  1767.71,1343.65 1766.45,1341.06 1762.66,1341.5 1760.13,1342.89 1756.34,1346.62 1753.81,1352.95 1752.55,1361.87 1752.55,1370.1 1753.81,1375.99 1756.34,1377.89 
  1760.13,1377.45 1761.39,1376.75 1765.19,1373.02 1767.71,1368.34 1768.98,1362.71 1768.98,1361.06 1767.71,1356.82 1765.19,1354.92 1761.39,1355.36 1760.13,1356.05 
  1756.34,1359.78 1753.81,1364.47 1752.55,1370.1 
  "/>
<polyline clip-path="url(#clip2501)" style="stroke:#000000; stroke-width:4; stroke-opacity:1; fill:none" points="
  1822.15,1308.77 1818.36,1312.5 1815.84,1318.83 1814.57,1327.75 1814.57,1332.69 1815.84,1340.22 1818.36,1343.77 1822.15,1343.33 1824.68,1341.94 1828.47,1338.21 
  1831,1331.88 1832.26,1322.96 1832.26,1318.02 1831,1310.49 1828.47,1306.94 1824.68,1307.38 1822.15,1308.77 
  "/>
<polyline clip-path="url(#clip2501)" style="stroke:#000000; stroke-width:4; stroke-opacity:1; fill:none" points="
  1842.37,1328.92 1841.1,1331.26 1842.37,1332.21 1843.63,1329.87 1842.37,1328.92 
  "/>
<polyline clip-path="url(#clip2501)" style="stroke:#000000; stroke-width:4; stroke-opacity:1; fill:none" points="
  1858.79,1288.62 1855,1292.35 1853.74,1296.33 1853.74,1299.62 1855,1302.22 1857.53,1302.48 1862.58,1301.34 1866.37,1300.9 1868.9,1302.8 1870.16,1305.4 
  1870.16,1310.34 1868.9,1314.32 1867.63,1316.67 1863.84,1320.4 1858.79,1323.18 1855,1323.62 1853.74,1322.66 1852.47,1320.07 1852.47,1315.13 1853.74,1311.14 
  1856.26,1306.46 1860.05,1302.73 1865.11,1298.31 1867.63,1295.27 1868.9,1291.28 1868.9,1287.99 1867.63,1285.4 1863.84,1285.84 1858.79,1288.62 
  "/>
<polyline clip-path="url(#clip2501)" style="stroke:#000000; stroke-width:4; stroke-opacity:1; fill:none" points="
  1413.05,1503.47 1443.18,1486.9 1451.31,1487.76 1443.18,1486.9 1493.78,1459.07 1510.03,1460.79 1493.78,1459.07 1544.37,1431.24 1552.49,1432.1 1544.37,1431.24 
  1594.96,1403.4 1611.21,1405.13 1594.96,1403.4 1645.55,1375.57 1653.68,1376.43 1645.55,1375.57 1696.15,1347.74 1712.4,1349.46 1696.15,1347.74 1746.74,1319.91 
  1754.87,1320.77 1746.74,1319.91 1797.33,1292.08 1813.59,1293.8 1797.33,1292.08 1847.93,1264.25 1856.05,1265.11 1847.93,1264.25 1882.19,1245.4 
  "/>
<circle clip-path="url(#clip2503)" style="fill:#000000; stroke:none; fill-opacity:1" cx="1172.27" cy="422.314" r="10"/>
<circle clip-path="url(#clip2503)" style="fill:#000000; stroke:none; fill-opacity:1" cx="1172.27" cy="422.314" r="7"/>
<circle clip-path="url(#clip2503)" style="fill:#000000; stroke:none; fill-opacity:1" cx="1004.09" cy="164.174" r="10"/>
<circle clip-path="url(#clip2503)" style="fill:#000000; stroke:none; fill-opacity:1" cx="1004.09" cy="164.174" r="7"/>
<circle clip-path="url(#clip2503)" style="fill:#000000; stroke:none; fill-opacity:1" cx="1588.93" cy="683.016" r="10"/>
<circle clip-path="url(#clip2503)" style="fill:#000000; stroke:none; fill-opacity:1" cx="1588.93" cy="683.016" r="7"/>
<circle clip-path="url(#clip2503)" style="fill:#000000; stroke:none; fill-opacity:1" cx="1357.56" cy="772.752" r="10"/>
<circle clip-path="url(#clip2503)" style="fill:#000000; stroke:none; fill-opacity:1" cx="1357.56" cy="772.752" r="7"/>
<circle clip-path="url(#clip2503)" style="fill:#000000; stroke:none; fill-opacity:1" cx="1097.82" cy="1044.27" r="10"/>
<circle clip-path="url(#clip2503)" style="fill:#000000; stroke:none; fill-opacity:1" cx="1097.82" cy="1044.27" r="7"/>
<circle clip-path="url(#clip2503)" style="fill:#000000; stroke:none; fill-opacity:1" cx="1745.3" cy="734.423" r="10"/>
<circle clip-path="url(#clip2503)" style="fill:#000000; stroke:none; fill-opacity:1" cx="1745.3" cy="734.423" r="7"/>
<circle clip-path="url(#clip2503)" style="fill:#000000; stroke:none; fill-opacity:1" cx="1779.51" cy="1134.25" r="10"/>
<circle clip-path="url(#clip2503)" style="fill:#000000; stroke:none; fill-opacity:1" cx="1779.51" cy="1134.25" r="7"/>
<circle clip-path="url(#clip2503)" style="fill:#000000; stroke:none; fill-opacity:1" cx="1725.59" cy="683.722" r="10"/>
<circle clip-path="url(#clip2503)" style="fill:#000000; stroke:none; fill-opacity:1" cx="1725.59" cy="683.722" r="7"/>
<circle clip-path="url(#clip2503)" style="fill:#000000; stroke:none; fill-opacity:1" cx="1255.13" cy="1082.45" r="10"/>
<circle clip-path="url(#clip2503)" style="fill:#000000; stroke:none; fill-opacity:1" cx="1255.13" cy="1082.45" r="7"/>
<circle clip-path="url(#clip2503)" style="fill:#000000; stroke:none; fill-opacity:1" cx="857.665" cy="1305.54" r="10"/>
<circle clip-path="url(#clip2503)" style="fill:#000000; stroke:none; fill-opacity:1" cx="857.665" cy="1305.54" r="7"/>
</svg>
