<?xml version="1.0" encoding="utf-8"?>
<svg xmlns="http://www.w3.org/2000/svg" xmlns:xlink="http://www.w3.org/1999/xlink" width="600" height="400" viewBox="0 0 2400 1600">
<defs>
  <clipPath id="clip2300">
    <rect x="0" y="0" width="2000" height="2000"/>
  </clipPath>
</defs>
<defs>
  <clipPath id="clip2301">
    <rect x="0" y="0" width="2400" height="1600"/>
  </clipPath>
</defs>
<polygon clip-path="url(#clip2301)" points="
0,1600 2400,1600 2400,0 0,0 
  " fill="#ffffff" fill-rule="evenodd" fill-opacity="1"/>
<defs>
  <clipPath id="clip2302">
    <rect x="480" y="0" width="1681" height="1600"/>
  </clipPath>
</defs>
<polygon clip-path="url(#clip2301)" points="
251.149,1440.48 2321.26,1440.48 2321.26,47.2441 251.149,47.2441 
  " fill="#ffffff" fill-rule="evenodd" fill-opacity="1"/>
<defs>
  <clipPath id="clip2303">
    <rect x="251" y="47" width="2071" height="1394"/>
  </clipPath>
</defs>
<polyline clip-path="url(#clip2303)" style="stroke:#000000; stroke-width:2; stroke-opacity:0.1; fill:none" points="
  251.149,1440.48 251.149,47.2441 
  "/>
<polyline clip-path="url(#clip2303)" style="stroke:#000000; stroke-width:2; stroke-opacity:0.1; fill:none" points="
  941.186,1440.48 941.186,47.2441 
  "/>
<polyline clip-path="url(#clip2303)" style="stroke:#000000; stroke-width:2; stroke-opacity:0.1; fill:none" points="
  1631.22,1440.48 1631.22,47.2441 
  "/>
<polyline clip-path="url(#clip2303)" style="stroke:#000000; stroke-width:2; stroke-opacity:0.1; fill:none" points="
  2321.26,1440.48 2321.26,47.2441 
  "/>
<polyline clip-path="url(#clip2303)" style="stroke:#000000; stroke-width:2; stroke-opacity:0.1; fill:none" points="
  251.149,1401.05 2321.26,1401.05 
  "/>
<polyline clip-path="url(#clip2303)" style="stroke:#000000; stroke-width:2; stroke-opacity:0.1; fill:none" points="
  251.149,1072.46 2321.26,1072.46 
  "/>
<polyline clip-path="url(#clip2303)" style="stroke:#000000; stroke-width:2; stroke-opacity:0.1; fill:none" points="
  251.149,743.863 2321.26,743.863 
  "/>
<polyline clip-path="url(#clip2303)" style="stroke:#000000; stroke-width:2; stroke-opacity:0.1; fill:none" points="
  251.149,415.269 2321.26,415.269 
  "/>
<polyline clip-path="url(#clip2303)" style="stroke:#000000; stroke-width:2; stroke-opacity:0.1; fill:none" points="
  251.149,86.6754 2321.26,86.6754 
  "/>
<polyline clip-path="url(#clip2301)" style="stroke:#000000; stroke-width:4; stroke-opacity:1; fill:none" points="
  251.149,1440.48 2321.26,1440.48 
  "/>
<polyline clip-path="url(#clip2301)" style="stroke:#000000; stroke-width:4; stroke-opacity:1; fill:none" points="
  251.149,1440.48 251.149,47.2441 
  "/>
<polyline clip-path="url(#clip2301)" style="stroke:#000000; stroke-width:4; stroke-opacity:1; fill:none" points="
  251.149,1440.48 251.149,1419.58 
  "/>
<polyline clip-path="url(#clip2301)" style="stroke:#000000; stroke-width:4; stroke-opacity:1; fill:none" points="
  941.186,1440.48 941.186,1419.58 
  "/>
<polyline clip-path="url(#clip2301)" style="stroke:#000000; stroke-width:4; stroke-opacity:1; fill:none" points="
  1631.22,1440.48 1631.22,1419.58 
  "/>
<polyline clip-path="url(#clip2301)" style="stroke:#000000; stroke-width:4; stroke-opacity:1; fill:none" points="
  2321.26,1440.48 2321.26,1419.58 
  "/>
<polyline clip-path="url(#clip2301)" style="stroke:#000000; stroke-width:4; stroke-opacity:1; fill:none" points="
  251.149,1401.05 282.2,1401.05 
  "/>
<polyline clip-path="url(#clip2301)" style="stroke:#000000; stroke-width:4; stroke-opacity:1; fill:none" points="
  251.149,1072.46 282.2,1072.46 
  "/>
<polyline clip-path="url(#clip2301)" style="stroke:#000000; stroke-width:4; stroke-opacity:1; fill:none" points="
  251.149,743.863 282.2,743.863 
  "/>
<polyline clip-path="url(#clip2301)" style="stroke:#000000; stroke-width:4; stroke-opacity:1; fill:none" points="
  251.149,415.269 282.2,415.269 
  "/>
<polyline clip-path="url(#clip2301)" style="stroke:#000000; stroke-width:4; stroke-opacity:1; fill:none" points="
  251.149,86.6754 282.2,86.6754 
  "/>
<g clip-path="url(#clip2301)">
<text style="fill:#000000; fill-opacity:1; font-family:Arial,Helvetica Neue,Helvetica,sans-serif; font-size:48px; text-anchor:middle;" transform="rotate(0, 251.149, 1494.48)" x="251.149" y="1494.48">0</text>
</g>
<g clip-path="url(#clip2301)">
<text style="fill:#000000; fill-opacity:1; font-family:Arial,Helvetica Neue,Helvetica,sans-serif; font-size:48px; text-anchor:middle;" transform="rotate(0, 941.186, 1494.48)" x="941.186" y="1494.48">1</text>
</g>
<g clip-path="url(#clip2301)">
<text style="fill:#000000; fill-opacity:1; font-family:Arial,Helvetica Neue,Helvetica,sans-serif; font-size:48px; text-anchor:middle;" transform="rotate(0, 1631.22, 1494.48)" x="1631.22" y="1494.48">2</text>
</g>
<g clip-path="url(#clip2301)">
<text style="fill:#000000; fill-opacity:1; font-family:Arial,Helvetica Neue,Helvetica,sans-serif; font-size:48px; text-anchor:middle;" transform="rotate(0, 2321.26, 1494.48)" x="2321.26" y="1494.48">3</text>
</g>
<g clip-path="url(#clip2301)">
<text style="fill:#000000; fill-opacity:1; font-family:Arial,Helvetica Neue,Helvetica,sans-serif; font-size:48px; text-anchor:end;" transform="rotate(0, 227.149, 1418.55)" x="227.149" y="1418.55">0.00</text>
</g>
<g clip-path="url(#clip2301)">
<text style="fill:#000000; fill-opacity:1; font-family:Arial,Helvetica Neue,Helvetica,sans-serif; font-size:48px; text-anchor:end;" transform="rotate(0, 227.149, 1089.96)" x="227.149" y="1089.96">0.25</text>
</g>
<g clip-path="url(#clip2301)">
<text style="fill:#000000; fill-opacity:1; font-family:Arial,Helvetica Neue,Helvetica,sans-serif; font-size:48px; text-anchor:end;" transform="rotate(0, 227.149, 761.363)" x="227.149" y="761.363">0.50</text>
</g>
<g clip-path="url(#clip2301)">
<text style="fill:#000000; fill-opacity:1; font-family:Arial,Helvetica Neue,Helvetica,sans-serif; font-size:48px; text-anchor:end;" transform="rotate(0, 227.149, 432.769)" x="227.149" y="432.769">0.75</text>
</g>
<g clip-path="url(#clip2301)">
<text style="fill:#000000; fill-opacity:1; font-family:Arial,Helvetica Neue,Helvetica,sans-serif; font-size:48px; text-anchor:end;" transform="rotate(0, 227.149, 104.175)" x="227.149" y="104.175">1.00</text>
</g>
<g clip-path="url(#clip2301)">
<text style="fill:#000000; fill-opacity:1; font-family:Arial,Helvetica Neue,Helvetica,sans-serif; font-size:66px; text-anchor:middle;" transform="rotate(0, 1286.2, 1590.4)" x="1286.2" y="1590.4">Lag h</text>
</g>
<g clip-path="url(#clip2301)">
<text style="fill:#000000; fill-opacity:1; font-family:Arial,Helvetica Neue,Helvetica,sans-serif; font-size:66px; text-anchor:middle;" transform="rotate(-90, 57.6, 743.863)" x="57.6" y="743.863">Variogram(h)</text>
</g>
<polyline clip-path="url(#clip2303)" style="stroke:#009af9; stroke-width:4; stroke-opacity:1; fill:none" points="
  251.149,1400.92 272.059,1397.3 292.97,1386.52 313.88,1368.74 334.79,1344.25 355.7,1313.45 376.61,1276.83 397.521,1234.97 418.431,1188.48 439.341,1138.07 
  460.251,1084.46 481.161,1028.37 502.072,970.555 522.982,911.731 543.892,852.59 564.802,793.781 585.713,735.901 606.623,679.484 627.533,624.995 648.443,572.829 
  669.353,523.305 690.264,476.672 711.174,433.105 732.084,392.715 752.994,355.548 773.904,321.597 794.815,290.805 815.725,263.075 836.635,238.274 857.545,216.244 
  878.455,196.807 899.366,179.771 920.276,164.939 941.186,152.107 962.096,141.08 983.006,131.662 1003.92,123.67 1024.83,116.93 1045.74,111.283 1066.65,106.58 
  1087.56,102.687 1108.47,99.4845 1129.38,96.8664 1150.29,94.7389 1171.2,93.0205 1192.11,91.6408 1213.02,90.5398 1233.93,89.6664 1254.84,88.9777 1275.75,88.4378 
  1296.66,88.0171 1317.57,87.6912 1338.48,87.4403 1359.39,87.2481 1380.3,87.1019 1401.21,86.9913 1422.12,86.908 1443.03,86.8458 1463.94,86.7995 1484.85,86.7653 
  1505.76,86.7402 1526.67,86.7218 1547.58,86.7085 1568.49,86.6988 1589.4,86.6919 1610.31,86.687 1631.22,86.6834 1652.13,86.681 1673.04,86.6792 1693.95,86.678 
  1714.86,86.6772 1735.77,86.6766 1756.68,86.6762 1777.59,86.6759 1798.5,86.6757 1819.41,86.6756 1840.33,86.6755 1861.24,86.6755 1882.15,86.6754 1903.06,86.6754 
  1923.97,86.6754 1944.88,86.6754 1965.79,86.6754 1986.7,86.6754 2007.61,86.6754 2028.52,86.6754 2049.43,86.6754 2070.34,86.6754 2091.25,86.6754 2112.16,86.6754 
  2133.07,86.6754 2153.98,86.6754 2174.89,86.6754 2195.8,86.6754 2216.71,86.6754 2237.62,86.6754 2258.53,86.6754 2279.44,86.6754 2300.35,86.6754 2321.26,86.6754 
  
  "/>
<polyline clip-path="url(#clip2303)" style="stroke:#e26f46; stroke-width:4; stroke-opacity:1; fill:none" points="
  251.149,1401.05 272.059,1286.83 292.97,1182.54 313.88,1087.31 334.79,1000.35 355.7,920.955 376.61,848.457 397.521,782.259 418.431,721.813 439.341,666.62 
  460.251,616.223 481.161,570.206 502.072,528.188 522.982,489.82 543.892,454.787 564.802,422.799 585.713,393.59 606.623,366.919 627.533,342.566 648.443,320.33 
  669.353,300.025 690.264,281.485 711.174,264.556 732.084,249.099 752.994,234.984 773.904,222.096 794.815,210.328 815.725,199.583 836.635,189.771 857.545,180.812 
  878.455,172.632 899.366,165.162 920.276,158.342 941.186,152.114 962.096,146.428 983.006,141.235 1003.92,136.494 1024.83,132.165 1045.74,128.212 1066.65,124.602 
  1087.56,121.306 1108.47,118.297 1129.38,115.549 1150.29,113.04 1171.2,110.749 1192.11,108.657 1213.02,106.747 1233.93,105.003 1254.84,103.41 1275.75,101.956 
  1296.66,100.628 1317.57,99.4154 1338.48,98.3083 1359.39,97.2974 1380.3,96.3744 1401.21,95.5316 1422.12,94.762 1443.03,94.0592 1463.94,93.4176 1484.85,92.8317 
  1505.76,92.2967 1526.67,91.8082 1547.58,91.3622 1568.49,90.9549 1589.4,90.583 1610.31,90.2434 1631.22,89.9334 1652.13,89.6503 1673.04,89.3917 1693.95,89.1557 
  1714.86,88.9402 1735.77,88.7434 1756.68,88.5636 1777.59,88.3996 1798.5,88.2497 1819.41,88.1129 1840.33,87.988 1861.24,87.8739 1882.15,87.7698 1903.06,87.6747 
  1923.97,87.5878 1944.88,87.5085 1965.79,87.4361 1986.7,87.37 2007.61,87.3097 2028.52,87.2545 2049.43,87.2042 2070.34,87.1583 2091.25,87.1163 2112.16,87.078 
  2133.07,87.043 2153.98,87.011 2174.89,86.9819 2195.8,86.9552 2216.71,86.9309 2237.62,86.9087 2258.53,86.8884 2279.44,86.8699 2300.35,86.853 2321.26,86.8376 
  
  "/>
<polyline clip-path="url(#clip2303)" style="stroke:#3da44d; stroke-width:4; stroke-opacity:1; fill:none" points="
  251.149,1401.05 272.059,1341.32 292.97,1281.71 313.88,1222.31 334.79,1163.24 355.7,1104.61 376.61,1046.53 397.521,989.112 418.431,932.458 439.341,876.682 
  460.251,821.893 481.161,768.202 502.072,715.718 522.982,664.55 543.892,614.809 564.802,566.604 585.713,520.045 606.623,475.241 627.533,432.303 648.443,391.339 
  669.353,352.461 690.264,315.777 711.174,281.397 732.084,249.431 752.994,219.989 773.904,193.18 794.815,169.114 815.725,147.901 836.635,129.65 857.545,114.472 
  878.455,102.475 899.366,93.7707 920.276,88.4674 941.186,86.6754 962.096,86.6754 983.006,86.6754 1003.92,86.6754 1024.83,86.6754 1045.74,86.6754 1066.65,86.6754 
  1087.56,86.6754 1108.47,86.6754 1129.38,86.6754 1150.29,86.6754 1171.2,86.6754 1192.11,86.6754 1213.02,86.6754 1233.93,86.6754 1254.84,86.6754 1275.75,86.6754 
  1296.66,86.6754 1317.57,86.6754 1338.48,86.6754 1359.39,86.6754 1380.3,86.6754 1401.21,86.6754 1422.12,86.6754 1443.03,86.6754 1463.94,86.6754 1484.85,86.6754 
  1505.76,86.6754 1526.67,86.6754 1547.58,86.6754 1568.49,86.6754 1589.4,86.6754 1610.31,86.6754 1631.22,86.6754 1652.13,86.6754 1673.04,86.6754 1693.95,86.6754 
  1714.86,86.6754 1735.77,86.6754 1756.68,86.6754 1777.59,86.6754 1798.5,86.6754 1819.41,86.6754 1840.33,86.6754 1861.24,86.6754 1882.15,86.6754 1903.06,86.6754 
  1923.97,86.6754 1944.88,86.6754 1965.79,86.6754 1986.7,86.6754 2007.61,86.6754 2028.52,86.6754 2049.43,86.6754 2070.34,86.6754 2091.25,86.6754 2112.16,86.6754 
  2133.07,86.6754 2153.98,86.6754 2174.89,86.6754 2195.8,86.6754 2216.71,86.6754 2237.62,86.6754 2258.53,86.6754 2279.44,86.6754 2300.35,86.6754 2321.26,86.6754 
  
  "/>
<polyline clip-path="url(#clip2303)" style="stroke:#c271d2; stroke-width:4; stroke-opacity:1; fill:none" points="
  251.149,1401.05 272.059,1396.5 292.97,1386.2 313.88,1372 334.79,1354.88 355.7,1335.48 376.61,1314.29 397.521,1291.7 418.431,1268 439.341,1243.45 
  460.251,1218.25 481.161,1192.58 502.072,1166.59 522.982,1140.41 543.892,1114.14 564.802,1087.88 585.713,1061.71 606.623,1035.7 627.533,1009.91 648.443,984.388 
  669.353,959.177 690.264,934.316 711.174,909.837 732.084,885.765 752.994,862.123 773.904,838.929 794.815,816.198 815.725,793.941 836.635,772.167 857.545,750.883 
  878.455,730.094 899.366,709.801 920.276,690.006 941.186,670.708 962.096,651.905 983.006,633.595 1003.92,615.773 1024.83,598.434 1045.74,581.573 1066.65,565.183 
  1087.56,549.258 1108.47,533.789 1129.38,518.771 1150.29,504.193 1171.2,490.048 1192.11,476.328 1213.02,463.022 1233.93,450.123 1254.84,437.622 1275.75,425.508 
  1296.66,413.774 1317.57,402.409 1338.48,391.405 1359.39,380.752 1380.3,370.442 1401.21,360.465 1422.12,350.813 1443.03,341.476 1463.94,332.445 1484.85,323.714 
  1505.76,315.272 1526.67,307.111 1547.58,299.224 1568.49,291.602 1589.4,284.238 1610.31,277.123 1631.22,270.251 1652.13,263.613 1673.04,257.203 1693.95,251.014 
  1714.86,245.038 1735.77,239.27 1756.68,233.701 1777.59,228.327 1798.5,223.141 1819.41,218.136 1840.33,213.307 1861.24,208.649 1882.15,204.155 1903.06,199.82 
  1923.97,195.639 1944.88,191.607 1965.79,187.719 1986.7,183.97 2007.61,180.355 2028.52,176.87 2049.43,173.511 2070.34,170.273 2091.25,167.151 2112.16,164.143 
  2133.07,161.243 2153.98,158.449 2174.89,155.757 2195.8,153.163 2216.71,150.663 2237.62,148.255 2258.53,145.936 2279.44,143.701 2300.35,141.549 2321.26,139.475 
  
  "/>
<polygon clip-path="url(#clip2301)" points="
1757.76,433.164 2249.26,433.164 2249.26,130.764 1757.76,130.764 
  " fill="#ffffff" fill-rule="evenodd" fill-opacity="1"/>
<polyline clip-path="url(#clip2301)" style="stroke:#000000; stroke-width:4; stroke-opacity:1; fill:none" points="
  1757.76,433.164 2249.26,433.164 2249.26,130.764 1757.76,130.764 1757.76,433.164 
  "/>
<polyline clip-path="url(#clip2301)" style="stroke:#009af9; stroke-width:4; stroke-opacity:1; fill:none" points="
  1781.76,191.244 1925.76,191.244 
  "/>
<g clip-path="url(#clip2301)">
<text style="fill:#000000; fill-opacity:1; font-family:Arial,Helvetica Neue,Helvetica,sans-serif; font-size:48px; text-anchor:start;" transform="rotate(0, 1949.76, 208.744)" x="1949.76" y="208.744">Gaussian</text>
</g>
<polyline clip-path="url(#clip2301)" style="stroke:#e26f46; stroke-width:4; stroke-opacity:1; fill:none" points="
  1781.76,251.724 1925.76,251.724 
  "/>
<g clip-path="url(#clip2301)">
<text style="fill:#000000; fill-opacity:1; font-family:Arial,Helvetica Neue,Helvetica,sans-serif; font-size:48px; text-anchor:start;" transform="rotate(0, 1949.76, 269.224)" x="1949.76" y="269.224">Exponential</text>
</g>
<polyline clip-path="url(#clip2301)" style="stroke:#3da44d; stroke-width:4; stroke-opacity:1; fill:none" points="
  1781.76,312.204 1925.76,312.204 
  "/>
<g clip-path="url(#clip2301)">
<text style="fill:#000000; fill-opacity:1; font-family:Arial,Helvetica Neue,Helvetica,sans-serif; font-size:48px; text-anchor:start;" transform="rotate(0, 1949.76, 329.704)" x="1949.76" y="329.704">Spherical</text>
</g>
<polyline clip-path="url(#clip2301)" style="stroke:#c271d2; stroke-width:4; stroke-opacity:1; fill:none" points="
  1781.76,372.684 1925.76,372.684 
  "/>
<g clip-path="url(#clip2301)">
<text style="fill:#000000; fill-opacity:1; font-family:Arial,Helvetica Neue,Helvetica,sans-serif; font-size:48px; text-anchor:start;" transform="rotate(0, 1949.76, 390.184)" x="1949.76" y="390.184">Matern</text>
</g>
</svg>
